<?xml version="1.0" encoding="utf-8"?>
<!-- Generator: Adobe Illustrator 24.3.0, SVG Export Plug-In . SVG Version: 6.00 Build 0)  -->
<svg version="1.1" id="Layer_1" xmlns="http://www.w3.org/2000/svg" xmlns:xlink="http://www.w3.org/1999/xlink" x="0px" y="0px"
	 viewBox="0 0 564.09 240.94" style="enable-background:new 0 0 564.09 240.94;" xml:space="preserve">
<style type="text/css">
	.st0{fill:none;stroke:#FF0000;stroke-width:0.2835;stroke-linecap:round;stroke-miterlimit:11.3386;}
</style>
<path id="front_outsideCutPath" vector-effect="non-scaling-stroke" class="st0" d="M0,138.9v22.32h8.5v19.13H0v19.13h8.5v19.13H0
	v19.13v3.19h21.61v-8.5h19.13v8.5h19.13v-8.5h19.13v8.5h19.13v-8.5h19.13v8.5h19.13v-8.5h19.13v8.5h19.13v-8.5h19.13v8.5h21.61
	v-22.32h-8.5v-19.13h8.5v-19.13h-8.5v-19.13h8.5v-19.13v-3.19h-21.61v8.5h-19.13v-8.5h-19.13v8.5h-19.13v-8.5h-19.13v8.5H98.15v-8.5
	H79.02v8.5H59.88v-8.5H40.75v8.5H21.61v-8.5H0z"/>
<path id="left_outsideCutPath" vector-effect="non-scaling-stroke" class="st0" d="M232.44,138.9v22.32h-8.5v19.13h8.5v19.13h-8.5
	v19.13h8.5v19.13v3.19h20.91v-8.5h19.13v8.5h19.13v-8.5h19.13v8.5h19.13h1.77v-22.32h8.5v-19.13h-8.5v-19.13h8.5v-19.13h-8.5v-19.13
	v-3.19h-20.91v8.5h-19.13v-8.5h-19.13v8.5h-19.13v-8.5h-19.13H232.44z"/>
<path id="top_outsideCutPath" vector-effect="non-scaling-stroke" class="st0" d="M357.17,133.23v20.91h-8.5v19.13h8.5v19.13h-8.5
	v19.13h8.5v19.13v1.77h13.11v8.5h19.13v-8.5h19.13v8.5h19.13v-8.5h19.13v8.5h19.13v-8.5h19.13v8.5h19.13v-8.5h19.13v8.5h19.13v-8.5
	h13.11v-20.91h8.5V192.4h-8.5v-19.13h8.5v-19.13h-8.5V135v-1.77h-13.11v-8.5h-19.13v8.5h-19.13v-8.5h-19.13v8.5h-19.13v-8.5h-19.13
	v8.5h-19.13v-8.5h-19.13v8.5h-19.13v-8.5h-19.13v8.5H357.17z"/>
<path id="back_outsideCutPath" vector-effect="non-scaling-stroke" class="st0" d="M0,28.35v22.32h8.5V69.8H0v19.13h8.5v19.13H0
	v19.13v3.19h21.61v-8.5h19.13v8.5h19.13v-8.5h19.13v8.5h19.13v-8.5h19.13v8.5h19.13v-8.5h19.13v8.5h19.13v-8.5h19.13v8.5h21.61
	v-22.32h-8.5V88.94h8.5V69.8h-8.5V50.67h8.5V31.54v-3.19h-21.61v8.5h-19.13v-8.5h-19.13v8.5h-19.13v-8.5h-19.13v8.5H98.15v-8.5
	H79.02v8.5H59.88v-8.5H40.75v8.5H21.61v-8.5H0z"/>
<path id="right_outsideCutPath" vector-effect="non-scaling-stroke" class="st0" d="M232.44,28.35v22.32h-8.5V69.8h8.5v19.13h-8.5
	v19.13h8.5v19.13v3.19h20.91v-8.5h19.13v8.5h19.13v-8.5h19.13v8.5h19.13h1.77v-22.32h8.5V88.94h-8.5V69.8h8.5V50.67h-8.5V31.54
	v-3.19h-20.91v8.5h-19.13v-8.5h-19.13v8.5h-19.13v-8.5h-19.13H232.44z"/>
<path id="bottom_outsideCutPath" vector-effect="non-scaling-stroke" class="st0" d="M357.17,8.5v20.91h-8.5v19.13h8.5v19.13h-8.5
	v19.13h8.5v19.13v1.77h13.11v8.5h19.13v-8.5h19.13v8.5h19.13v-8.5h19.13v8.5h19.13v-8.5h19.13v8.5h19.13v-8.5h19.13v8.5h19.13v-8.5
	h13.11V86.81h8.5V67.68h-8.5V48.54h8.5V29.41h-8.5V10.28V8.5h-13.11V0h-19.13v8.5h-19.13V0h-19.13v8.5h-19.13V0h-19.13v8.5h-19.13V0
	h-19.13v8.5h-19.13V0h-19.13v8.5H357.17z"/>
</svg>
